<mxfile host="65bd71144e">
    <diagram id="Pg5-eGN0Gc0MUeMtcdDD" name="Page-1">
        <mxGraphModel dx="829" dy="524" grid="1" gridSize="10" guides="1" tooltips="1" connect="1" arrows="1" fold="1" page="1" pageScale="1" pageWidth="850" pageHeight="1100" math="0" shadow="0">
            <root>
                <mxCell id="0"/>
                <mxCell id="1" parent="0"/>
                <mxCell id="2" value="" style="whiteSpace=wrap;html=1;" parent="1" vertex="1">
                    <mxGeometry x="80" y="80" width="160" height="600" as="geometry"/>
                </mxCell>
                <mxCell id="3" value="&lt;font style=&quot;font-size: 18px&quot;&gt;USERS&lt;/font&gt;" style="text;html=1;align=center;verticalAlign=middle;resizable=0;points=[];autosize=1;strokeColor=none;fillColor=none;" parent="1" vertex="1">
                    <mxGeometry x="120" y="50" width="80" height="20" as="geometry"/>
                </mxCell>
                <mxCell id="4" value="" style="whiteSpace=wrap;html=1;" parent="1" vertex="1">
                    <mxGeometry x="280" y="80" width="160" height="600" as="geometry"/>
                </mxCell>
                <mxCell id="5" value="&lt;font style=&quot;font-size: 18px&quot;&gt;VENDORS&lt;/font&gt;" style="text;html=1;align=center;verticalAlign=middle;resizable=0;points=[];autosize=1;strokeColor=none;fillColor=none;" parent="1" vertex="1">
                    <mxGeometry x="310" y="50" width="100" height="20" as="geometry"/>
                </mxCell>
                <mxCell id="6" value="" style="whiteSpace=wrap;html=1;" parent="1" vertex="1">
                    <mxGeometry x="480" y="80" width="160" height="600" as="geometry"/>
                </mxCell>
                <mxCell id="7" value="&lt;font style=&quot;font-size: 18px&quot;&gt;PRODUCTS&lt;/font&gt;" style="text;html=1;align=center;verticalAlign=middle;resizable=0;points=[];autosize=1;strokeColor=none;fillColor=none;" parent="1" vertex="1">
                    <mxGeometry x="500" y="50" width="120" height="20" as="geometry"/>
                </mxCell>
                <mxCell id="8" value="&lt;font style=&quot;font-size: 12px&quot;&gt;&amp;nbsp;_ID: 100&lt;br&gt;&amp;nbsp;userName: bob&lt;br&gt;&amp;nbsp;email: bob@bob.com&lt;br&gt;&amp;nbsp;password: ldjkjdkldsj&lt;br&gt;&lt;/font&gt;" style="whiteSpace=wrap;html=1;fontSize=18;align=left;" parent="1" vertex="1">
                    <mxGeometry x="90" y="100" width="140" height="130" as="geometry"/>
                </mxCell>
                <mxCell id="9" value="&lt;font style=&quot;font-size: 12px&quot;&gt;&amp;nbsp;_ID: 101&lt;br&gt;&amp;nbsp;userName: phil&lt;br&gt;&amp;nbsp;email: p@p.com&lt;br&gt;&amp;nbsp;password: 2343938&lt;br&gt;&lt;/font&gt;" style="whiteSpace=wrap;html=1;fontSize=18;align=left;" parent="1" vertex="1">
                    <mxGeometry x="90" y="250" width="140" height="130" as="geometry"/>
                </mxCell>
                <mxCell id="10" value="&lt;font style=&quot;font-size: 12px&quot;&gt;&amp;nbsp;_ID: 102&lt;br&gt;&amp;nbsp;userName: mary&lt;br&gt;&amp;nbsp;email: m@m.com&lt;br&gt;&amp;nbsp;password: $#@#$@&lt;br&gt;&lt;/font&gt;" style="whiteSpace=wrap;html=1;fontSize=18;align=left;" parent="1" vertex="1">
                    <mxGeometry x="90" y="400" width="140" height="130" as="geometry"/>
                </mxCell>
                <mxCell id="11" value="&lt;font style=&quot;font-size: 12px&quot;&gt;&amp;nbsp;_ID: 500&lt;br&gt;&amp;nbsp;name: Berry Patch&lt;br&gt;&amp;nbsp;imgPath: url/image&lt;br&gt;&amp;nbsp;location: 44 Elm St&lt;br&gt;&lt;/font&gt;" style="whiteSpace=wrap;html=1;fontSize=18;align=left;" parent="1" vertex="1">
                    <mxGeometry x="290" y="100" width="140" height="130" as="geometry"/>
                </mxCell>
                <mxCell id="12" value="&lt;font style=&quot;font-size: 12px&quot;&gt;&amp;nbsp;_ID: 501&lt;br&gt;&amp;nbsp;name: Wendy's Raz&lt;br&gt;&amp;nbsp;imgPath: url/image&lt;br&gt;&amp;nbsp;location: 509 Mann St&lt;br&gt;&lt;/font&gt;" style="whiteSpace=wrap;html=1;fontSize=18;align=left;" parent="1" vertex="1">
                    <mxGeometry x="290" y="250" width="140" height="130" as="geometry"/>
                </mxCell>
                <mxCell id="13" value="&lt;font style=&quot;font-size: 12px&quot;&gt;&amp;nbsp;_ID: 502&lt;br&gt;&amp;nbsp;name: Rhubarb Realm&lt;br&gt;&amp;nbsp;imgPath: url/image&lt;br&gt;&amp;nbsp;location: 22 Broad St&lt;br&gt;&lt;/font&gt;" style="whiteSpace=wrap;html=1;fontSize=18;align=left;" parent="1" vertex="1">
                    <mxGeometry x="290" y="400" width="140" height="130" as="geometry"/>
                </mxCell>
                <mxCell id="14" value="&lt;font style=&quot;font-size: 12px&quot;&gt;&amp;nbsp;_ID: 103&lt;br&gt;&amp;nbsp;userName: dodo&lt;br&gt;&amp;nbsp;email: d@d.com&lt;br&gt;&amp;nbsp;password: meowme&lt;br&gt;&lt;/font&gt;" style="whiteSpace=wrap;html=1;fontSize=18;align=left;" parent="1" vertex="1">
                    <mxGeometry x="90" y="540" width="140" height="130" as="geometry"/>
                </mxCell>
                <mxCell id="15" value="&lt;font style=&quot;font-size: 12px&quot;&gt;&amp;nbsp;_ID: 300&lt;br&gt;&amp;nbsp;name: Strawberries&lt;br&gt;&amp;nbsp;imagePath: url/image&lt;br&gt;&amp;nbsp;price: 7&lt;br&gt;&lt;br&gt;&lt;/font&gt;" style="whiteSpace=wrap;html=1;fontSize=18;align=left;" parent="1" vertex="1">
                    <mxGeometry x="490" y="100" width="140" height="130" as="geometry"/>
                </mxCell>
                <mxCell id="16" value="&lt;font style=&quot;font-size: 12px&quot;&gt;&amp;nbsp;_ID: 301&lt;br&gt;&amp;nbsp;name: Rhubarb&lt;br&gt;&amp;nbsp;imagePath: url/image&lt;br&gt;&amp;nbsp;price: 5&lt;br&gt;&lt;br&gt;&lt;/font&gt;" style="whiteSpace=wrap;html=1;fontSize=18;align=left;" parent="1" vertex="1">
                    <mxGeometry x="490" y="250" width="140" height="130" as="geometry"/>
                </mxCell>
                <mxCell id="17" value="&lt;font style=&quot;font-size: 12px&quot;&gt;&amp;nbsp;_ID: 302&lt;br&gt;&amp;nbsp;name: Tomatoes&lt;br&gt;&amp;nbsp;imagePath: url/image&lt;br&gt;&amp;nbsp;price: 8&lt;br&gt;&lt;/font&gt;" style="whiteSpace=wrap;html=1;fontSize=18;align=left;" parent="1" vertex="1">
                    <mxGeometry x="490" y="400" width="140" height="130" as="geometry"/>
                </mxCell>
                <mxCell id="18" value="&lt;font style=&quot;font-size: 12px&quot;&gt;&amp;nbsp;_ID: 303&lt;br&gt;&amp;nbsp;name: Raspberries&lt;br&gt;&amp;nbsp;price: 6&lt;br&gt;&lt;/font&gt;" style="whiteSpace=wrap;html=1;fontSize=18;align=left;" vertex="1" parent="1">
                    <mxGeometry x="490" y="540" width="140" height="130" as="geometry"/>
                </mxCell>
            </root>
        </mxGraphModel>
    </diagram>
</mxfile>